<mxfile host="app.diagrams.net" modified="2023-04-25T14:56:20.447Z" agent="Mozilla/5.0 (Windows NT 10.0; Win64; x64) AppleWebKit/537.36 (KHTML, like Gecko) Chrome/112.0.0.0 Safari/537.36 Edg/112.0.1722.58" etag="7jCwCFaJPp3uKWlh4GAO" version="21.2.1" type="github">
  <diagram name="Page-1" id="c7488fd3-1785-93aa-aadb-54a6760d102a">
    <mxGraphModel dx="934" dy="506" grid="1" gridSize="10" guides="1" tooltips="1" connect="1" arrows="1" fold="1" page="1" pageScale="1" pageWidth="1100" pageHeight="850" background="none" math="0" shadow="0">
      <root>
        <mxCell id="0" />
        <mxCell id="1" parent="0" />
        <mxCell id="PioGHYzCHyVuM6W1-n5X-24" value="Pool" style="swimlane;html=1;childLayout=stackLayout;horizontal=1;startSize=20;horizontalStack=0;rounded=0;shadow=0;labelBackgroundColor=none;strokeWidth=1;fontFamily=Verdana;fontSize=8;align=center;" vertex="1" parent="1">
          <mxGeometry x="210" y="40" width="680" height="770" as="geometry" />
        </mxCell>
        <mxCell id="PioGHYzCHyVuM6W1-n5X-25" value="Customer" style="swimlane;html=1;startSize=20;horizontal=0;" vertex="1" parent="PioGHYzCHyVuM6W1-n5X-24">
          <mxGeometry y="20" width="680" height="150" as="geometry" />
        </mxCell>
        <mxCell id="PioGHYzCHyVuM6W1-n5X-26" value="Order book" style="rounded=1;whiteSpace=wrap;html=1;shadow=0;labelBackgroundColor=none;strokeWidth=1;fontFamily=Verdana;fontSize=8;align=center;" vertex="1" parent="PioGHYzCHyVuM6W1-n5X-25">
          <mxGeometry x="115" y="56.49999999999997" width="70" height="37" as="geometry" />
        </mxCell>
        <mxCell id="PioGHYzCHyVuM6W1-n5X-27" value="Librarian" style="swimlane;html=1;startSize=20;horizontal=0;" vertex="1" parent="PioGHYzCHyVuM6W1-n5X-24">
          <mxGeometry y="170" width="680" height="150" as="geometry" />
        </mxCell>
        <mxCell id="PioGHYzCHyVuM6W1-n5X-47" value="Accept" style="strokeWidth=1;html=1;shape=mxgraph.flowchart.decision;whiteSpace=wrap;" vertex="1" parent="PioGHYzCHyVuM6W1-n5X-27">
          <mxGeometry x="120" y="40" width="60" height="50" as="geometry" />
        </mxCell>
        <mxCell id="PioGHYzCHyVuM6W1-n5X-53" style="edgeStyle=orthogonalEdgeStyle;rounded=0;orthogonalLoop=1;jettySize=auto;html=1;entryX=0.5;entryY=0;entryDx=0;entryDy=0;entryPerimeter=0;" edge="1" parent="PioGHYzCHyVuM6W1-n5X-24" source="PioGHYzCHyVuM6W1-n5X-26" target="PioGHYzCHyVuM6W1-n5X-47">
          <mxGeometry relative="1" as="geometry" />
        </mxCell>
        <mxCell id="PioGHYzCHyVuM6W1-n5X-63" value="Procurement&lt;br&gt;" style="swimlane;html=1;startSize=20;horizontal=0;" vertex="1" parent="PioGHYzCHyVuM6W1-n5X-24">
          <mxGeometry y="320" width="680" height="150" as="geometry" />
        </mxCell>
        <mxCell id="PioGHYzCHyVuM6W1-n5X-93" value="" style="edgeStyle=orthogonalEdgeStyle;rounded=0;orthogonalLoop=1;jettySize=auto;html=1;dashed=1;" edge="1" parent="PioGHYzCHyVuM6W1-n5X-63" source="PioGHYzCHyVuM6W1-n5X-69" target="PioGHYzCHyVuM6W1-n5X-92">
          <mxGeometry relative="1" as="geometry" />
        </mxCell>
        <mxCell id="PioGHYzCHyVuM6W1-n5X-69" value="In storck" style="strokeWidth=1;html=1;shape=mxgraph.flowchart.decision;whiteSpace=wrap;" vertex="1" parent="PioGHYzCHyVuM6W1-n5X-63">
          <mxGeometry x="190" y="45" width="60" height="60" as="geometry" />
        </mxCell>
        <mxCell id="PioGHYzCHyVuM6W1-n5X-86" style="edgeStyle=orthogonalEdgeStyle;rounded=0;orthogonalLoop=1;jettySize=auto;html=1;exitX=0.5;exitY=1;exitDx=0;exitDy=0;" edge="1" parent="PioGHYzCHyVuM6W1-n5X-63">
          <mxGeometry relative="1" as="geometry">
            <mxPoint x="454.9999999999998" y="93.50000000000011" as="sourcePoint" />
            <mxPoint x="454.9999999999998" y="93.50000000000011" as="targetPoint" />
          </mxGeometry>
        </mxCell>
        <mxCell id="PioGHYzCHyVuM6W1-n5X-92" value="Backordere" style="rounded=1;whiteSpace=wrap;html=1;shadow=0;labelBackgroundColor=none;strokeWidth=1;fontFamily=Verdana;fontSize=8;align=center;" vertex="1" parent="PioGHYzCHyVuM6W1-n5X-63">
          <mxGeometry x="305" y="56.5" width="70" height="37" as="geometry" />
        </mxCell>
        <mxCell id="PioGHYzCHyVuM6W1-n5X-70" style="edgeStyle=orthogonalEdgeStyle;rounded=0;orthogonalLoop=1;jettySize=auto;html=1;dashed=1;" edge="1" parent="PioGHYzCHyVuM6W1-n5X-24" source="PioGHYzCHyVuM6W1-n5X-47" target="PioGHYzCHyVuM6W1-n5X-69">
          <mxGeometry relative="1" as="geometry" />
        </mxCell>
        <mxCell id="PioGHYzCHyVuM6W1-n5X-72" style="edgeStyle=orthogonalEdgeStyle;rounded=0;orthogonalLoop=1;jettySize=auto;html=1;entryX=0.5;entryY=0;entryDx=0;entryDy=0;" edge="1" parent="PioGHYzCHyVuM6W1-n5X-24" source="PioGHYzCHyVuM6W1-n5X-69" target="PioGHYzCHyVuM6W1-n5X-71">
          <mxGeometry relative="1" as="geometry" />
        </mxCell>
        <mxCell id="PioGHYzCHyVuM6W1-n5X-73" style="edgeStyle=orthogonalEdgeStyle;rounded=0;orthogonalLoop=1;jettySize=auto;html=1;entryX=0.5;entryY=1;entryDx=0;entryDy=0;" edge="1" parent="PioGHYzCHyVuM6W1-n5X-24" source="PioGHYzCHyVuM6W1-n5X-71" target="PioGHYzCHyVuM6W1-n5X-34">
          <mxGeometry relative="1" as="geometry" />
        </mxCell>
        <mxCell id="PioGHYzCHyVuM6W1-n5X-76" style="edgeStyle=orthogonalEdgeStyle;rounded=0;orthogonalLoop=1;jettySize=auto;html=1;entryX=0.5;entryY=0;entryDx=0;entryDy=0;" edge="1" parent="PioGHYzCHyVuM6W1-n5X-24" source="PioGHYzCHyVuM6W1-n5X-47" target="PioGHYzCHyVuM6W1-n5X-50">
          <mxGeometry relative="1" as="geometry">
            <Array as="points">
              <mxPoint x="150" y="520" />
              <mxPoint x="105" y="520" />
            </Array>
          </mxGeometry>
        </mxCell>
        <mxCell id="PioGHYzCHyVuM6W1-n5X-31" value="Field Services" style="swimlane;html=1;startSize=20;horizontal=0;" vertex="1" parent="PioGHYzCHyVuM6W1-n5X-24">
          <mxGeometry y="470" width="680" height="150" as="geometry" />
        </mxCell>
        <mxCell id="PioGHYzCHyVuM6W1-n5X-34" value="Delivery" style="rounded=1;whiteSpace=wrap;html=1;shadow=0;labelBackgroundColor=none;strokeWidth=1;fontFamily=Verdana;fontSize=8;align=center;" vertex="1" parent="PioGHYzCHyVuM6W1-n5X-31">
          <mxGeometry x="305" y="70" width="70" height="37" as="geometry" />
        </mxCell>
        <mxCell id="PioGHYzCHyVuM6W1-n5X-56" value="Yes" style="text;html=1;align=center;verticalAlign=middle;resizable=0;points=[];autosize=1;strokeColor=none;fillColor=none;" vertex="1" parent="PioGHYzCHyVuM6W1-n5X-31">
          <mxGeometry x="100" y="20" width="40" height="30" as="geometry" />
        </mxCell>
        <mxCell id="PioGHYzCHyVuM6W1-n5X-82" value="Take book" style="rounded=1;whiteSpace=wrap;html=1;shadow=0;labelBackgroundColor=none;strokeWidth=1;fontFamily=Verdana;fontSize=8;align=center;" vertex="1" parent="PioGHYzCHyVuM6W1-n5X-31">
          <mxGeometry x="510" y="70" width="70" height="37" as="geometry" />
        </mxCell>
        <mxCell id="PioGHYzCHyVuM6W1-n5X-85" value="Yes" style="text;html=1;align=center;verticalAlign=middle;resizable=0;points=[];autosize=1;strokeColor=none;fillColor=none;" vertex="1" parent="PioGHYzCHyVuM6W1-n5X-31">
          <mxGeometry x="220" y="40" width="40" height="30" as="geometry" />
        </mxCell>
        <mxCell id="PioGHYzCHyVuM6W1-n5X-39" value="System" style="swimlane;html=1;startSize=20;horizontal=0;" vertex="1" parent="PioGHYzCHyVuM6W1-n5X-24">
          <mxGeometry y="620" width="680" height="150" as="geometry" />
        </mxCell>
        <mxCell id="PioGHYzCHyVuM6W1-n5X-55" style="edgeStyle=orthogonalEdgeStyle;rounded=0;orthogonalLoop=1;jettySize=auto;html=1;entryX=0;entryY=0.5;entryDx=0;entryDy=0;" edge="1" parent="PioGHYzCHyVuM6W1-n5X-39" source="PioGHYzCHyVuM6W1-n5X-50" target="PioGHYzCHyVuM6W1-n5X-51">
          <mxGeometry relative="1" as="geometry" />
        </mxCell>
        <mxCell id="PioGHYzCHyVuM6W1-n5X-50" value="Notification" style="rounded=1;whiteSpace=wrap;html=1;shadow=0;labelBackgroundColor=none;strokeWidth=1;fontFamily=Verdana;fontSize=8;align=center;" vertex="1" parent="PioGHYzCHyVuM6W1-n5X-39">
          <mxGeometry x="70" y="93.5" width="70" height="37" as="geometry" />
        </mxCell>
        <mxCell id="PioGHYzCHyVuM6W1-n5X-51" value="End" style="rounded=1;whiteSpace=wrap;html=1;shadow=0;labelBackgroundColor=none;strokeWidth=1;fontFamily=Verdana;fontSize=8;align=center;" vertex="1" parent="PioGHYzCHyVuM6W1-n5X-39">
          <mxGeometry x="590" y="93.5" width="70" height="37" as="geometry" />
        </mxCell>
        <mxCell id="PioGHYzCHyVuM6W1-n5X-71" value="Notification" style="rounded=1;whiteSpace=wrap;html=1;shadow=0;labelBackgroundColor=none;strokeWidth=1;fontFamily=Verdana;fontSize=8;align=center;" vertex="1" parent="PioGHYzCHyVuM6W1-n5X-39">
          <mxGeometry x="210" y="30" width="70" height="37" as="geometry" />
        </mxCell>
        <mxCell id="PioGHYzCHyVuM6W1-n5X-81" value="" style="edgeStyle=orthogonalEdgeStyle;rounded=0;orthogonalLoop=1;jettySize=auto;html=1;" edge="1" parent="PioGHYzCHyVuM6W1-n5X-39" source="PioGHYzCHyVuM6W1-n5X-78" target="PioGHYzCHyVuM6W1-n5X-80">
          <mxGeometry relative="1" as="geometry" />
        </mxCell>
        <mxCell id="PioGHYzCHyVuM6W1-n5X-78" value="Check date" style="rounded=1;whiteSpace=wrap;html=1;shadow=0;labelBackgroundColor=none;strokeWidth=1;fontFamily=Verdana;fontSize=8;align=center;" vertex="1" parent="PioGHYzCHyVuM6W1-n5X-39">
          <mxGeometry x="380" y="20" width="70" height="37" as="geometry" />
        </mxCell>
        <mxCell id="PioGHYzCHyVuM6W1-n5X-80" value="Notification" style="rounded=1;whiteSpace=wrap;html=1;shadow=0;labelBackgroundColor=none;strokeWidth=1;fontFamily=Verdana;fontSize=8;align=center;" vertex="1" parent="PioGHYzCHyVuM6W1-n5X-39">
          <mxGeometry x="510" y="20" width="70" height="37" as="geometry" />
        </mxCell>
        <mxCell id="PioGHYzCHyVuM6W1-n5X-79" style="edgeStyle=orthogonalEdgeStyle;rounded=0;orthogonalLoop=1;jettySize=auto;html=1;entryX=0.5;entryY=0;entryDx=0;entryDy=0;" edge="1" parent="PioGHYzCHyVuM6W1-n5X-24" source="PioGHYzCHyVuM6W1-n5X-34" target="PioGHYzCHyVuM6W1-n5X-78">
          <mxGeometry relative="1" as="geometry" />
        </mxCell>
        <mxCell id="PioGHYzCHyVuM6W1-n5X-83" value="" style="edgeStyle=orthogonalEdgeStyle;rounded=0;orthogonalLoop=1;jettySize=auto;html=1;" edge="1" parent="PioGHYzCHyVuM6W1-n5X-24" source="PioGHYzCHyVuM6W1-n5X-80" target="PioGHYzCHyVuM6W1-n5X-82">
          <mxGeometry relative="1" as="geometry" />
        </mxCell>
        <mxCell id="PioGHYzCHyVuM6W1-n5X-84" style="edgeStyle=orthogonalEdgeStyle;rounded=0;orthogonalLoop=1;jettySize=auto;html=1;entryX=0.5;entryY=0;entryDx=0;entryDy=0;" edge="1" parent="PioGHYzCHyVuM6W1-n5X-24" source="PioGHYzCHyVuM6W1-n5X-82" target="PioGHYzCHyVuM6W1-n5X-51">
          <mxGeometry relative="1" as="geometry" />
        </mxCell>
        <mxCell id="PioGHYzCHyVuM6W1-n5X-95" style="edgeStyle=orthogonalEdgeStyle;rounded=0;orthogonalLoop=1;jettySize=auto;html=1;entryX=0.5;entryY=0;entryDx=0;entryDy=0;" edge="1" parent="PioGHYzCHyVuM6W1-n5X-24" source="PioGHYzCHyVuM6W1-n5X-92" target="PioGHYzCHyVuM6W1-n5X-34">
          <mxGeometry relative="1" as="geometry" />
        </mxCell>
        <mxCell id="PioGHYzCHyVuM6W1-n5X-94" value="No" style="text;html=1;align=center;verticalAlign=middle;resizable=0;points=[];autosize=1;strokeColor=none;fillColor=none;" vertex="1" parent="1">
          <mxGeometry x="470" y="408" width="40" height="30" as="geometry" />
        </mxCell>
      </root>
    </mxGraphModel>
  </diagram>
</mxfile>
